<svg width="45" height="45" viewBox="0 0 45 45" fill="none" xmlns="http://www.w3.org/2000/svg">
<path fill-rule="evenodd" clip-rule="evenodd" d="M17.6107 4.11089C17.6107 4.11089 22.8433 -0.423994 27.3782 1.32019C31.9131 3.06438 33.3084 7.9481 33.3084 11.4365C33.3084 14.9248 31.5642 16.8434 31.5642 19.8086C31.5642 22.7737 34.0061 21.9016 35.0526 25.0411C37.2506 31.6352 24.9144 31.7018 17.6107 32.2736C13.4987 32.5955 6.44796 27.483 10.9828 21.5528C13.1732 18.6888 10.2852 5.33182 17.6107 4.11089Z" fill="#404040"/>
<path d="M25.2851 20.8047H19.7037V27.4326H25.2851V20.8047Z" fill="#DBBD76"/>
<path fill-rule="evenodd" clip-rule="evenodd" d="M38.9619 33.7016C38.004 30.0102 34.6723 27.4326 30.8584 27.4326C25.899 27.4326 19.0894 27.4326 14.1303 27.4326C10.3165 27.4326 6.98438 30.0102 6.02647 33.7016C5.21542 36.8268 4.29624 40.3699 3.76112 42.4309C3.65298 42.8488 3.74403 43.2935 4.0081 43.6351C4.27252 43.9769 4.67996 44.1768 5.11182 44.1768C11.5601 44.1768 33.4283 44.1768 39.8766 44.1768C40.3084 44.1768 40.7159 43.9769 40.9803 43.6351C41.2447 43.2935 41.3358 42.8488 41.2273 42.4309C40.6925 40.3699 39.773 36.8268 38.9619 33.7016Z" fill="#808080"/>
<path fill-rule="evenodd" clip-rule="evenodd" d="M30.465 44.1768C34.4612 44.1768 29.5751 27.4326 28.8969 27.4326C24.9882 27.4326 20.3469 27.4326 16.4012 27.4326C15.6125 27.4326 10.9817 44.1768 15.3122 44.1768C20.153 44.1768 25.7068 44.1768 30.465 44.1768Z" fill="#D5D5D5"/>
<path fill-rule="evenodd" clip-rule="evenodd" d="M22.4944 6.05371C24.3963 6.05371 24.3771 8.17499 25.6339 9.6422C26.9156 11.1384 29.4547 12.0031 29.4547 14.3016C29.4547 18.8539 26.3358 23.2472 22.4944 23.2472C18.6526 23.2472 15.5337 18.8539 15.5337 14.3016C15.5337 9.74929 18.6526 6.05371 22.4944 6.05371Z" fill="#F9D786"/>
<path fill-rule="evenodd" clip-rule="evenodd" d="M23.5409 27.4326H21.4479C21.4479 27.4326 19.89 37.558 19.4623 40.3382C19.3946 40.7777 19.5405 41.2228 19.8548 41.5372C20.2981 41.9805 20.9585 42.6409 21.5076 43.1899C21.7692 43.4519 22.1243 43.5988 22.4944 43.5988C22.8645 43.5988 23.2193 43.4519 23.4809 43.1899C24.0303 42.6409 24.6907 41.9805 25.1337 41.5372C25.448 41.2228 25.5938 40.7777 25.5265 40.3382C25.0985 37.558 23.5409 27.4326 23.5409 27.4326Z" fill="#F43131"/>
<path fill-rule="evenodd" clip-rule="evenodd" d="M29.1223 27.9559V27.4326H16.2153V28.4791C16.5886 29.039 17.0515 29.7332 17.4467 30.3266C17.6665 30.6559 18.0157 30.8767 18.4078 30.9335C18.7995 30.9904 19.1968 30.8781 19.501 30.6245C20.7384 29.5933 22.4944 28.1303 22.4944 28.1303C22.4944 28.1303 24.2501 29.5933 25.4874 30.6245C25.7916 30.8781 26.1893 30.9904 26.581 30.9335C26.9728 30.8767 27.322 30.6559 27.5417 30.3266C28.0741 29.5281 29.1223 27.9559 29.1223 27.9559Z" fill="#F3F3F3"/>
<path fill-rule="evenodd" clip-rule="evenodd" d="M16.2154 27.4326C16.2154 27.4326 14.0896 29.9446 13.0026 31.2294C12.6269 31.6734 12.5658 32.3038 12.8495 32.8113C13.1055 33.269 13.4202 33.8324 13.6738 34.2862C13.9507 34.7823 13.8995 35.3969 13.544 35.8403C12.9395 36.5934 12.0025 37.7613 11.3882 38.5267C11.0195 38.9865 10.9793 39.628 11.2877 40.1303C11.8755 41.0872 12.8254 42.6335 13.365 43.5119C13.6186 43.9249 14.069 44.1768 14.5539 44.1768C15.2683 44.1768 16.2154 44.1768 16.2154 44.1768V27.4326ZM29.1224 27.4326C29.1224 27.4326 31.2478 29.9446 32.3352 31.2294C32.7105 31.6734 32.7715 32.3038 32.4879 32.8113C32.2322 33.269 31.9176 33.8324 31.664 34.2862C31.3867 34.7823 31.4379 35.3969 31.7938 35.8403C32.3983 36.5934 33.3353 37.7613 33.9492 38.5267C34.3179 38.9865 34.3584 39.628 34.0497 40.1303C33.4622 41.0872 32.512 42.6335 31.9727 43.5119C31.7188 43.9249 31.2688 44.1768 30.7835 44.1768C30.0691 44.1768 29.1224 44.1768 29.1224 44.1768V27.4326Z" fill="#A0A0A0"/>
<path fill-rule="evenodd" clip-rule="evenodd" d="M15.5337 15.3807H17.7576C18.1427 15.3807 18.4552 15.0681 18.4552 14.683C18.4552 14.2979 18.1427 13.9854 17.7576 13.9854H15.5337C15.1486 13.9854 14.8361 14.2979 14.8361 14.683C14.8361 15.0681 15.1486 15.3807 15.5337 15.3807ZM21.5665 15.3807H23.3194C23.7045 15.3807 24.0171 15.0681 24.0171 14.683C24.0171 14.2979 23.7045 13.9854 23.3194 13.9854H21.5665C21.1814 13.9854 20.8689 14.2979 20.8689 14.683C20.8689 15.0681 21.1814 15.3807 21.5665 15.3807ZM27.5037 15.3807H29.2566C29.6418 15.3807 29.9543 15.0681 29.9543 14.683C29.9543 14.2979 29.6418 13.9854 29.2566 13.9854H27.5037C27.119 13.9854 26.8061 14.2979 26.8061 14.683C26.8061 15.0681 27.119 15.3807 27.5037 15.3807Z" fill="#262626"/>
<path fill-rule="evenodd" clip-rule="evenodd" d="M19.7037 12.084C18.3558 12.084 17.2618 13.1779 17.2618 14.5258C17.2618 15.8734 18.3558 16.9677 19.7037 16.9677C21.0513 16.9677 22.1456 15.8734 22.1456 14.5258C22.1456 13.1779 21.0513 12.084 19.7037 12.084ZM19.7037 13.4793C20.281 13.4793 20.7502 13.9482 20.7502 14.5258C20.7502 15.1035 20.281 15.5724 19.7037 15.5724C19.126 15.5724 18.6572 15.1035 18.6572 14.5258C18.6572 13.9482 19.126 13.4793 19.7037 13.4793ZM25.2851 12.084C23.9372 12.084 22.8432 13.1779 22.8432 14.5258C22.8432 15.8734 23.9372 16.9677 25.2851 16.9677C26.6327 16.9677 27.727 15.8734 27.727 14.5258C27.727 13.1779 26.6327 12.084 25.2851 12.084ZM25.2851 13.4793C25.8624 13.4793 26.3316 13.9482 26.3316 14.5258C26.3316 15.1035 25.8624 15.5724 25.2851 15.5724C24.7074 15.5724 24.2386 15.1035 24.2386 14.5258C24.2386 13.9482 24.7074 13.4793 25.2851 13.4793Z" fill="#262626"/>
</svg>
