<svg width="26" height="26" viewBox="0 0 26 26" fill="none" xmlns="http://www.w3.org/2000/svg">
<g clip-path="url(#clip0_120_23)">
<path d="M13 26C20.1797 26 26 20.1797 26 13C26 5.8203 20.1797 0 13 0C5.8203 0 0 5.8203 0 13C0 20.1797 5.8203 26 13 26Z" fill="#239FDB"/>
<path fill-rule="evenodd" clip-rule="evenodd" d="M17.756 25.096C18.144 24.9444 18.5244 24.7742 18.896 24.586C19.2822 24.3893 19.6584 24.1733 20.023 23.939C20.3877 23.7051 20.7405 23.4531 21.08 23.184C21.4198 22.9145 21.7458 22.6281 22.057 22.326C22.368 22.024 22.6637 21.7066 22.943 21.375C23.1596 21.1119 23.3658 20.8403 23.561 20.561L16 13L10.7 8L10 8.66L14.467 13.127L10 17.34L17.756 25.096Z" fill="#0B5ECD"/>
<path fill-rule="evenodd" clip-rule="evenodd" d="M15.9992 13.0024L10.6991 8.00098L9.99954 8.66215L14.599 13.0024L9.99954 17.3418L10.6991 18.0018L15.9992 13.0024Z" fill="white"/>
</g>
<defs>
<clipPath id="clip0_120_23">
<rect width="26" height="26" fill="white"/>
</clipPath>
</defs>
</svg>
