<svg width="40" height="40" viewBox="0 0 40 40" fill="none" xmlns="http://www.w3.org/2000/svg">
<path d="M38.3334 20C38.3334 21.8833 38.05 23.7333 37.4833 25.5C35.0667 33.1833 28.0334 38.3333 20 38.3333C9.88335 38.3333 1.66669 30.1166 1.66669 20C1.66669 9.88329 9.88335 1.66663 20 1.66663C28.0334 1.66663 35.0667 6.81663 37.4833 14.5C37.7667 15.3833 37.2667 16.3166 36.4 16.5833C35.5334 16.8666 34.5834 16.3666 34.3167 15.5C32.3334 9.21663 26.5834 4.99996 20 4.99996C11.7334 4.99996 5.00002 11.7333 5.00002 20C5.00002 28.2666 11.7334 35 20 35C26.5834 35 32.3334 30.7833 34.3167 24.5C34.7667 23.05 35 21.5333 35 20C35 19.0833 35.75 18.3333 36.6667 18.3333C37.5834 18.3333 38.3334 19.0833 38.3334 20ZM20 8.33329C19.0834 8.33329 18.3334 9.08329 18.3334 9.99996V20C18.3334 20.2166 18.3834 20.4333 18.4667 20.6333C18.55 20.8333 18.6667 21.0166 18.8334 21.1833L25.9 28.25C26.2334 28.5833 26.65 28.7333 27.0834 28.7333C27.5167 28.7333 27.9333 28.5666 28.2667 28.25C28.9167 27.6 28.9167 26.55 28.2667 25.9L21.6667 19.3166V9.99996C21.6667 9.08329 20.9167 8.33329 20 8.33329Z" fill="url(#paint0_linear_4_10)"/>
<defs>
<linearGradient id="paint0_linear_4_10" x1="1.66669" y1="20" x2="38.3334" y2="20" gradientUnits="userSpaceOnUse">
<stop offset="0.198" stop-color="#60D3FC"/>
<stop offset="0.872" stop-color="#FC6BF8"/>
</linearGradient>
</defs>
</svg>
