<svg width="30" height="30" viewBox="0 0 30 30" fill="none" xmlns="http://www.w3.org/2000/svg">
<g clip-path="url(#clip0_121_77)">
<path d="M22.2188 21.2812V27.6562C22.2188 28.6875 21.375 29.5312 20.3438 29.5312H2.53125C1.5 29.5312 0.65625 28.6875 0.65625 27.6562V2.34375C0.65625 1.3125 1.5 0.46875 2.53125 0.46875H15.6562L22.2188 7.03125V21.2812Z" fill="white"/>
<path d="M15.6563 3.28125H4.40625C3.84375 3.28125 3.46875 3.65625 3.46875 4.21875V6.09375C3.46875 6.65625 3.84375 7.03125 4.40625 7.03125H17.5313L15.6563 3.28125Z" fill="#8B8891"/>
<path d="M29.3438 13.5C29.3438 13.875 29.1562 14.25 28.9688 14.5313L18.6563 24.8438L16.6875 22.875L27 12.5625C27.5625 12 28.4062 12 28.9688 12.5625C29.25 12.75 29.3438 13.125 29.3438 13.5Z" fill="#FDD331"/>
<path d="M16.0313 26.0625L15.375 25.4063L16.6875 22.7812L18.6562 24.75L16.0313 26.0625Z" fill="#8B8891"/>
<path d="M4.40625 9.84375C4.96875 9.84375 5.34375 10.2188 5.34375 10.7812C5.34375 11.3438 4.96875 11.7188 4.40625 11.7188C3.84375 11.7188 3.46875 11.3438 3.46875 10.7812C3.46875 10.2188 3.84375 9.84375 4.40625 9.84375ZM4.40625 14.5312C4.96875 14.5312 5.34375 14.9062 5.34375 15.4688C5.34375 16.0312 4.96875 16.4062 4.40625 16.4062C3.84375 16.4062 3.46875 16.0312 3.46875 15.4688C3.46875 14.9062 3.84375 14.5312 4.40625 14.5312ZM4.40625 19.2188C4.96875 19.2188 5.34375 19.5938 5.34375 20.1562C5.34375 20.7188 4.96875 21.0938 4.40625 21.0938C3.84375 21.0938 3.46875 20.7188 3.46875 20.1562C3.46875 19.5938 3.84375 19.2188 4.40625 19.2188ZM22.2188 7.03125H17.5313C16.5 7.03125 15.6563 6.1875 15.6563 5.15625V0.46875L22.2188 7.03125Z" fill="#DAD9DB"/>
<path d="M29.3438 13.5C29.3438 13.875 29.1563 14.25 28.9688 14.5313L28.0313 15.4688L26.0625 13.5L27 12.5625C27.5625 12 28.4063 12 28.9688 12.5625C29.25 12.75 29.3438 13.125 29.3438 13.5Z" fill="#8B8891"/>
<path d="M8.15625 12.1875H19.4062C19.6875 12.1875 19.875 12 19.875 11.7188C19.875 11.4375 19.6875 11.25 19.4062 11.25H8.15625C7.875 11.25 7.6875 11.4375 7.6875 11.7188C7.6875 12 7.875 12.1875 8.15625 12.1875ZM8.15625 15H19.4062C19.6875 15 19.875 14.8125 19.875 14.5312C19.875 14.25 19.6875 14.0625 19.4062 14.0625H8.15625C7.875 14.0625 7.6875 14.25 7.6875 14.5312C7.6875 14.8125 7.875 15 8.15625 15ZM29.25 12.1875C28.5 11.4375 27.375 11.4375 26.625 12.1875L25.6875 13.125L22.6875 16.125V7.03125C22.6875 7.03125 22.6875 7.03125 22.6875 6.9375C22.6875 6.9375 22.6875 6.9375 22.6875 6.84375C22.6875 6.75 22.5938 6.65625 22.5938 6.65625L16.0312 0.09375C15.9375 0.09375 15.8437 0 15.75 0C15.75 0 15.75 0 15.6562 0C15.6562 0 15.6562 0 15.5625 0H2.4375C1.21875 0 0.1875 1.03125 0.1875 2.34375V27.6562C0.1875 28.9688 1.21875 30 2.53125 30H20.3438C21.6562 30 22.6875 28.9688 22.6875 27.6562V21.4688L28.3125 15.8438L29.25 14.9062C30 14.0625 30 12.9375 29.25 12.1875ZM16.125 1.59375L21.0938 6.5625H17.5312C16.7812 6.5625 16.125 5.90625 16.125 5.15625V1.59375ZM15.6562 6.5625H4.40625C4.125 6.5625 3.9375 6.375 3.9375 6.09375V4.21875C3.9375 3.9375 4.125 3.75 4.40625 3.75H15.1875V5.15625C15.1875 5.625 15.375 6.1875 15.6562 6.5625ZM21.75 27.6562C21.75 28.4062 21.0938 29.0625 20.3438 29.0625H2.53125C1.78125 29.0625 1.125 28.4062 1.125 27.6562V2.34375C1.125 1.59375 1.78125 0.9375 2.53125 0.9375H15.1875V2.8125H4.40625C3.65625 2.8125 3 3.46875 3 4.21875V6.09375C3 6.84375 3.65625 7.5 4.40625 7.5H21.75V17.0625L16.3125 22.5C16.3125 22.5 16.3125 22.5938 16.2187 22.5938L14.9062 25.2188C14.8125 25.4062 14.8125 25.5938 15 25.6875L14.4375 26.25C14.25 26.4375 14.25 26.7188 14.4375 26.9062C14.625 27.0938 14.9063 27.0938 15.0938 26.9062L15.6562 26.3438C15.8438 26.5312 16.0312 26.5312 16.2187 26.4375L18.8438 25.125C18.8438 25.125 18.9375 25.125 18.9375 25.0312L21.6562 22.3125L21.75 27.6562ZM16.7812 23.625L17.8125 24.6562L16.0312 25.5L15.9375 25.4062V25.3125L16.7812 23.625ZM21.8437 20.9062L18.6562 24.0938L17.3438 22.7812L26.0625 14.0625L27.375 15.375L21.8437 20.9062ZM28.5938 14.1562L28.0312 14.7188L26.7188 13.4062L27.2812 12.8438C27.6562 12.4688 28.2188 12.4688 28.5938 12.8438C28.9688 13.2188 28.9688 13.7812 28.5938 14.1562ZM8.15625 10.3125H19.4062C19.6875 10.3125 19.875 10.125 19.875 9.84375C19.875 9.5625 19.6875 9.375 19.4062 9.375H8.15625C7.875 9.375 7.6875 9.5625 7.6875 9.84375C7.6875 10.125 7.875 10.3125 8.15625 10.3125ZM12.8438 26.1562C12.4688 26.1562 12.0938 26.0625 11.8125 25.875C10.875 25.3125 9.75 25.3125 8.8125 25.875C8.53125 26.0625 8.15625 26.1562 7.78125 26.1562C7.40625 26.1562 7.03125 26.0625 6.75 25.875C6.28125 25.5938 5.8125 25.4062 5.25 25.4062C4.96875 25.4062 4.78125 25.5938 4.78125 25.875C4.78125 26.1562 4.96875 26.3438 5.25 26.3438C5.625 26.3438 6 26.4375 6.28125 26.625C6.75 26.9062 7.21875 27.0938 7.78125 27.0938C8.34375 27.0938 8.8125 26.9062 9.28125 26.625C9.9375 26.25 10.6875 26.25 11.3438 26.625C11.8125 26.9062 12.2812 27.0938 12.8438 27.0938C13.125 27.0938 13.3125 26.9062 13.3125 26.625C13.3125 26.3438 13.125 26.1562 12.8438 26.1562ZM8.15625 16.875H19.4062C19.6875 16.875 19.875 16.6875 19.875 16.4062C19.875 16.125 19.6875 15.9375 19.4062 15.9375H8.15625C7.875 15.9375 7.6875 16.125 7.6875 16.4062C7.6875 16.6875 7.875 16.875 8.15625 16.875ZM4.40625 16.875C5.15625 16.875 5.8125 16.2188 5.8125 15.4688C5.8125 14.7188 5.15625 14.0625 4.40625 14.0625C3.65625 14.0625 3 14.7188 3 15.4688C3 16.2188 3.65625 16.875 4.40625 16.875ZM4.40625 15C4.6875 15 4.875 15.1875 4.875 15.4688C4.875 15.75 4.6875 15.9375 4.40625 15.9375C4.125 15.9375 3.9375 15.75 3.9375 15.4688C3.9375 15.1875 4.125 15 4.40625 15ZM5.8125 20.1562C5.8125 19.4062 5.15625 18.75 4.40625 18.75C3.65625 18.75 3 19.4062 3 20.1562C3 20.9062 3.65625 21.5625 4.40625 21.5625C5.15625 21.5625 5.8125 20.9062 5.8125 20.1562ZM4.40625 20.625C4.125 20.625 3.9375 20.4375 3.9375 20.1562C3.9375 19.875 4.125 19.6875 4.40625 19.6875C4.6875 19.6875 4.875 19.875 4.875 20.1562C4.875 20.4375 4.6875 20.625 4.40625 20.625ZM4.40625 12.1875C5.15625 12.1875 5.8125 11.5312 5.8125 10.7812C5.8125 10.0312 5.15625 9.375 4.40625 9.375C3.65625 9.375 3 10.0312 3 10.7812C3 11.5312 3.65625 12.1875 4.40625 12.1875ZM4.40625 10.3125C4.6875 10.3125 4.875 10.5 4.875 10.7812C4.875 11.0625 4.6875 11.25 4.40625 11.25C4.125 11.25 3.9375 11.0625 3.9375 10.7812C3.9375 10.5 4.125 10.3125 4.40625 10.3125ZM8.15625 19.6875H15.6562C15.9375 19.6875 16.125 19.5 16.125 19.2188C16.125 18.9375 15.9375 18.75 15.6562 18.75H8.15625C7.875 18.75 7.6875 18.9375 7.6875 19.2188C7.6875 19.5 7.875 19.6875 8.15625 19.6875ZM8.15625 21.5625H15.6562C15.9375 21.5625 16.125 21.375 16.125 21.0938C16.125 20.8125 15.9375 20.625 15.6562 20.625H8.15625C7.875 20.625 7.6875 20.8125 7.6875 21.0938C7.6875 21.375 7.875 21.5625 8.15625 21.5625Z" fill="black"/>
</g>
<defs>
<clipPath id="clip0_121_77">
<rect width="30" height="30" fill="white"/>
</clipPath>
</defs>
</svg>
